<svg xmlns="http://www.w3.org/2000/svg" width="882" height="207" viewBox="0 0 882 207" version="1.1"><path d="" stroke="none" fill="#000000" fill-rule="evenodd"/><path d="M 764.500 41.868 C 762.183 42.356, 760.964 43.581, 759.145 47.247 C 757.163 51.244, 756.649 54.384, 755.898 67.102 C 754.974 82.727, 753.402 95.043, 752.194 96.117 C 751.812 96.456, 749.252 97.479, 746.504 98.390 C 741.809 99.947, 741.431 99.942, 740.244 98.319 C 737.375 94.396, 737.117 90.193, 739.078 79.320 C 741.210 67.498, 741.602 53.047, 739.883 49.684 C 737.814 45.639, 735.146 44.254, 731.145 45.151 C 729.140 45.600, 726.375 46.198, 725 46.481 C 723.625 46.763, 721.498 47.783, 720.274 48.747 C 717.425 50.991, 716.429 57.726, 714.913 85 C 714.069 100.177, 713.397 105.928, 712.325 107.147 C 711.528 108.053, 708.819 109.312, 706.304 109.945 C 695.425 112.684, 691.371 116.913, 693.166 123.648 C 694.263 127.767, 700.238 133, 703.844 133 C 709.107 133, 710.447 135.008, 710.280 142.644 C 709.773 165.871, 709.801 173.134, 710.401 173.734 C 710.773 174.106, 713.909 174.590, 717.371 174.811 C 722.340 175.127, 724.529 174.771, 727.769 173.118 C 732.301 170.806, 731.757 172.536, 733.956 153.432 C 734.530 148.445, 735 142.505, 735 140.231 C 735 137.958, 735.484 133.842, 736.075 131.084 C 737.206 125.811, 740.179 122.985, 746.168 121.490 C 750.661 120.369, 751.270 123.063, 751.124 143.421 C 751.053 153.364, 751.334 161.995, 751.747 162.600 C 753.325 164.907, 757.100 166, 763.490 166 L 770.112 166 772.306 161.250 C 774.327 156.874, 774.500 154.964, 774.500 137 L 774.500 117.500 777.302 113.837 C 778.844 111.822, 780.725 109.936, 781.482 109.645 C 785.419 108.135, 783.932 92.323, 779.678 90.456 C 777.648 89.565, 777.501 88.819, 777.513 79.500 C 777.520 74, 778.052 65.411, 778.694 60.412 C 779.982 50.400, 779.205 44.354, 776.364 42.277 C 774.549 40.949, 769.663 40.781, 764.500 41.868 M 584.751 48.711 C 581.155 49.606, 581.341 58.527, 585.081 64.614 C 587.159 67.996, 590.905 69, 601.440 69 C 604.278 69, 607.140 69.540, 607.800 70.200 C 609.479 71.879, 609.332 86.074, 607.587 90.730 C 606.810 92.803, 605.187 101.700, 603.982 110.500 C 602.776 119.300, 600.978 130.775, 599.986 136 C 598.971 141.344, 597.874 153.450, 597.479 163.673 L 596.776 181.845 601.109 184.055 C 603.587 185.320, 608.117 186.480, 611.694 186.768 C 617.726 187.252, 617.982 187.177, 618.949 184.635 C 620.169 181.424, 621.448 173.624, 623.560 156.500 C 624.442 149.350, 625.800 139.900, 626.578 135.500 C 628.779 123.040, 633 91.239, 633 87.113 C 633 85.071, 633.374 82.973, 633.831 82.450 C 634.289 81.928, 635.186 79.658, 635.824 77.407 L 636.986 73.315 641.743 74.098 C 644.359 74.528, 651.057 74.908, 656.628 74.940 C 664.694 74.988, 667.022 74.678, 668.068 73.418 C 669.651 71.511, 669.980 57.593, 668.478 56.084 C 667.511 55.111, 657.235 54.024, 615.500 50.480 C 591.944 48.479, 586.857 48.186, 584.751 48.711 M 806.272 62.510 C 799.062 66.160, 794.999 71.518, 794.349 78.233 C 793.899 82.877, 794.201 84.063, 796.902 88.258 C 801.776 95.827, 811.008 98.865, 809.376 92.363 C 809.006 90.888, 807.651 87.841, 806.364 85.591 C 803.075 79.841, 803.308 76.981, 807.283 74.275 C 810.177 72.304, 810.978 72.180, 814.276 73.193 C 816.721 73.943, 818 74.937, 818 76.086 C 818 79.355, 816.792 81, 814.393 81 C 812.755 81, 812 81.568, 812 82.800 C 812 85.750, 814.121 87, 819.127 87 C 823.366 87, 824.178 86.612, 826.989 83.250 C 829.684 80.025, 830.040 78.960, 829.533 75.645 C 828.260 67.328, 822.629 61.031, 815.826 60.318 C 812.509 59.969, 810.281 60.481, 806.272 62.510 M 673 88.933 C 668.817 90.207, 657.941 95.870, 653.731 98.966 C 648.919 102.505, 643.083 114.335, 639.858 127.088 C 637.607 135.992, 637.665 143.193, 640.102 157 C 641.192 163.178, 641.605 163.859, 648.447 170.750 L 655.645 178 664.294 178 C 671.250 178, 673.976 177.535, 678.221 175.625 C 686.841 171.746, 691.884 167.446, 694.564 161.690 C 698.310 153.644, 697.932 151.902, 691.515 147.642 C 688.499 145.639, 685.535 144, 684.929 144 C 684.323 144, 680.973 146.740, 677.486 150.089 C 670.826 156.484, 665.450 158.852, 662.621 156.637 C 659.732 154.374, 658.072 140.379, 659.366 129.208 C 660.165 122.317, 660.468 121.658, 664.881 117.208 C 667.449 114.619, 671.787 111.375, 674.520 110 C 677.253 108.625, 680.841 106.602, 682.495 105.503 C 684.148 104.405, 685.697 103.383, 685.938 103.232 C 686.179 103.081, 685.279 99.593, 683.938 95.482 C 681.609 88.340, 681.366 88.010, 678.500 88.089 C 676.850 88.135, 674.375 88.515, 673 88.933 M 814 103.536 C 812.625 104.301, 809.363 105.226, 806.752 105.592 C 798.628 106.730, 797.095 111.623, 795.037 143 C 793.427 167.562, 793.330 178.722, 794.715 180.111 C 795.383 180.781, 798.363 181.531, 801.337 181.778 C 806.460 182.203, 806.963 182.028, 810.937 178.438 C 813.243 176.355, 815.765 173.421, 816.542 171.919 C 818.228 168.659, 821.453 125.894, 820.759 115.998 C 820.507 112.414, 819.450 107.848, 818.401 105.821 C 816.582 102.305, 816.392 102.206, 814 103.536" stroke="none" fill="#453271" fill-rule="evenodd"/><path d="M 764.500 41.868 C 762.183 42.356, 760.964 43.581, 759.145 47.247 C 757.163 51.244, 756.649 54.384, 755.898 67.102 C 754.974 82.727, 753.402 95.043, 752.194 96.117 C 751.812 96.456, 749.252 97.479, 746.504 98.390 C 741.809 99.947, 741.431 99.942, 740.244 98.319 C 737.375 94.396, 737.117 90.193, 739.078 79.320 C 741.210 67.498, 741.602 53.047, 739.883 49.684 C 737.814 45.639, 735.146 44.254, 731.145 45.151 C 729.140 45.600, 726.375 46.198, 725 46.481 C 723.625 46.763, 721.498 47.783, 720.274 48.747 C 717.425 50.991, 716.429 57.726, 714.913 85 C 714.069 100.177, 713.397 105.928, 712.325 107.147 C 711.528 108.053, 708.819 109.312, 706.304 109.945 C 695.425 112.684, 691.371 116.913, 693.166 123.648 C 694.263 127.767, 700.238 133, 703.844 133 C 709.107 133, 710.447 135.008, 710.280 142.644 C 709.773 165.871, 709.801 173.134, 710.401 173.734 C 710.773 174.106, 713.909 174.590, 717.371 174.811 C 722.340 175.127, 724.529 174.771, 727.769 173.118 C 732.301 170.806, 731.757 172.536, 733.956 153.432 C 734.530 148.445, 735 142.505, 735 140.231 C 735 137.958, 735.484 133.842, 736.075 131.084 C 737.206 125.811, 740.179 122.985, 746.168 121.490 C 750.661 120.369, 751.270 123.063, 751.124 143.421 C 751.053 153.364, 751.334 161.995, 751.747 162.600 C 753.325 164.907, 757.100 166, 763.490 166 L 770.112 166 772.306 161.250 C 774.327 156.874, 774.500 154.964, 774.500 137 L 774.500 117.500 777.302 113.837 C 778.844 111.822, 780.725 109.936, 781.482 109.645 C 785.419 108.135, 783.932 92.323, 779.678 90.456 C 777.648 89.565, 777.501 88.819, 777.513 79.500 C 777.520 74, 778.052 65.411, 778.694 60.412 C 779.982 50.400, 779.205 44.354, 776.364 42.277 C 774.549 40.949, 769.663 40.781, 764.500 41.868 M 584.751 48.711 C 581.155 49.606, 581.341 58.527, 585.081 64.614 C 587.159 67.996, 590.905 69, 601.440 69 C 604.278 69, 607.140 69.540, 607.800 70.200 C 609.479 71.879, 609.332 86.074, 607.587 90.730 C 606.810 92.803, 605.187 101.700, 603.982 110.500 C 602.776 119.300, 600.978 130.775, 599.986 136 C 598.971 141.344, 597.874 153.450, 597.479 163.673 L 596.776 181.845 601.109 184.055 C 603.587 185.320, 608.117 186.480, 611.694 186.768 C 617.726 187.252, 617.982 187.177, 618.949 184.635 C 620.169 181.424, 621.448 173.624, 623.560 156.500 C 624.442 149.350, 625.800 139.900, 626.578 135.500 C 628.779 123.040, 633 91.239, 633 87.113 C 633 85.071, 633.374 82.973, 633.831 82.450 C 634.289 81.928, 635.186 79.658, 635.824 77.407 L 636.986 73.315 641.743 74.098 C 644.359 74.528, 651.057 74.908, 656.628 74.940 C 664.694 74.988, 667.022 74.678, 668.068 73.418 C 669.651 71.511, 669.980 57.593, 668.478 56.084 C 667.511 55.111, 657.235 54.024, 615.500 50.480 C 591.944 48.479, 586.857 48.186, 584.751 48.711 M 806.272 62.510 C 799.062 66.160, 794.999 71.518, 794.349 78.233 C 793.899 82.877, 794.201 84.063, 796.902 88.258 C 801.776 95.827, 811.008 98.865, 809.376 92.363 C 809.006 90.888, 807.651 87.841, 806.364 85.591 C 803.075 79.841, 803.308 76.981, 807.283 74.275 C 810.177 72.304, 810.978 72.180, 814.276 73.193 C 816.721 73.943, 818 74.937, 818 76.086 C 818 79.355, 816.792 81, 814.393 81 C 812.755 81, 812 81.568, 812 82.800 C 812 85.750, 814.121 87, 819.127 87 C 823.366 87, 824.178 86.612, 826.989 83.250 C 829.684 80.025, 830.040 78.960, 829.533 75.645 C 828.260 67.328, 822.629 61.031, 815.826 60.318 C 812.509 59.969, 810.281 60.481, 806.272 62.510 M 673 88.933 C 668.817 90.207, 657.941 95.870, 653.731 98.966 C 648.919 102.505, 643.083 114.335, 639.858 127.088 C 637.607 135.992, 637.665 143.193, 640.102 157 C 641.192 163.178, 641.605 163.859, 648.447 170.750 L 655.645 178 664.294 178 C 671.250 178, 673.976 177.535, 678.221 175.625 C 686.841 171.746, 691.884 167.446, 694.564 161.690 C 698.310 153.644, 697.932 151.902, 691.515 147.642 C 688.499 145.639, 685.535 144, 684.929 144 C 684.323 144, 680.973 146.740, 677.486 150.089 C 670.826 156.484, 665.450 158.852, 662.621 156.637 C 659.732 154.374, 658.072 140.379, 659.366 129.208 C 660.165 122.317, 660.468 121.658, 664.881 117.208 C 667.449 114.619, 671.787 111.375, 674.520 110 C 677.253 108.625, 680.841 106.602, 682.495 105.503 C 684.148 104.405, 685.697 103.383, 685.938 103.232 C 686.179 103.081, 685.279 99.593, 683.938 95.482 C 681.609 88.340, 681.366 88.010, 678.500 88.089 C 676.850 88.135, 674.375 88.515, 673 88.933 M 814 103.536 C 812.625 104.301, 809.363 105.226, 806.752 105.592 C 798.628 106.730, 797.095 111.623, 795.037 143 C 793.427 167.562, 793.330 178.722, 794.715 180.111 C 795.383 180.781, 798.363 181.531, 801.337 181.778 C 806.460 182.203, 806.963 182.028, 810.937 178.438 C 813.243 176.355, 815.765 173.421, 816.542 171.919 C 818.228 168.659, 821.453 125.894, 820.759 115.998 C 820.507 112.414, 819.450 107.848, 818.401 105.821 C 816.582 102.305, 816.392 102.206, 814 103.536" stroke="none" fill="#453271" fill-rule="evenodd"/><path d="M 764.500 41.868 C 762.183 42.356, 760.964 43.581, 759.145 47.247 C 757.163 51.244, 756.649 54.384, 755.898 67.102 C 754.974 82.727, 753.402 95.043, 752.194 96.117 C 751.812 96.456, 749.252 97.479, 746.504 98.390 C 741.809 99.947, 741.431 99.942, 740.244 98.319 C 737.375 94.396, 737.117 90.193, 739.078 79.320 C 741.210 67.498, 741.602 53.047, 739.883 49.684 C 737.814 45.639, 735.146 44.254, 731.145 45.151 C 729.140 45.600, 726.375 46.198, 725 46.481 C 723.625 46.763, 721.498 47.783, 720.274 48.747 C 717.425 50.991, 716.429 57.726, 714.913 85 C 714.069 100.177, 713.397 105.928, 712.325 107.147 C 711.528 108.053, 708.819 109.312, 706.304 109.945 C 695.425 112.684, 691.371 116.913, 693.166 123.648 C 694.263 127.767, 700.238 133, 703.844 133 C 709.107 133, 710.447 135.008, 710.280 142.644 C 709.773 165.871, 709.801 173.134, 710.401 173.734 C 710.773 174.106, 713.909 174.590, 717.371 174.811 C 722.340 175.127, 724.529 174.771, 727.769 173.118 C 732.301 170.806, 731.757 172.536, 733.956 153.432 C 734.530 148.445, 735 142.505, 735 140.231 C 735 137.958, 735.484 133.842, 736.075 131.084 C 737.206 125.811, 740.179 122.985, 746.168 121.490 C 750.661 120.369, 751.270 123.063, 751.124 143.421 C 751.053 153.364, 751.334 161.995, 751.747 162.600 C 753.325 164.907, 757.100 166, 763.490 166 L 770.112 166 772.306 161.250 C 774.327 156.874, 774.500 154.964, 774.500 137 L 774.500 117.500 777.302 113.837 C 778.844 111.822, 780.725 109.936, 781.482 109.645 C 785.419 108.135, 783.932 92.323, 779.678 90.456 C 777.648 89.565, 777.501 88.819, 777.513 79.500 C 777.520 74, 778.052 65.411, 778.694 60.412 C 779.982 50.400, 779.205 44.354, 776.364 42.277 C 774.549 40.949, 769.663 40.781, 764.500 41.868 M 584.751 48.711 C 581.155 49.606, 581.341 58.527, 585.081 64.614 C 587.159 67.996, 590.905 69, 601.440 69 C 604.278 69, 607.140 69.540, 607.800 70.200 C 609.479 71.879, 609.332 86.074, 607.587 90.730 C 606.810 92.803, 605.187 101.700, 603.982 110.500 C 602.776 119.300, 600.978 130.775, 599.986 136 C 598.971 141.344, 597.874 153.450, 597.479 163.673 L 596.776 181.845 601.109 184.055 C 603.587 185.320, 608.117 186.480, 611.694 186.768 C 617.726 187.252, 617.982 187.177, 618.949 184.635 C 620.169 181.424, 621.448 173.624, 623.560 156.500 C 624.442 149.350, 625.800 139.900, 626.578 135.500 C 628.779 123.040, 633 91.239, 633 87.113 C 633 85.071, 633.374 82.973, 633.831 82.450 C 634.289 81.928, 635.186 79.658, 635.824 77.407 L 636.986 73.315 641.743 74.098 C 644.359 74.528, 651.057 74.908, 656.628 74.940 C 664.694 74.988, 667.022 74.678, 668.068 73.418 C 669.651 71.511, 669.980 57.593, 668.478 56.084 C 667.511 55.111, 657.235 54.024, 615.500 50.480 C 591.944 48.479, 586.857 48.186, 584.751 48.711 M 806.272 62.510 C 799.062 66.160, 794.999 71.518, 794.349 78.233 C 793.899 82.877, 794.201 84.063, 796.902 88.258 C 801.776 95.827, 811.008 98.865, 809.376 92.363 C 809.006 90.888, 807.651 87.841, 806.364 85.591 C 803.075 79.841, 803.308 76.981, 807.283 74.275 C 810.177 72.304, 810.978 72.180, 814.276 73.193 C 816.721 73.943, 818 74.937, 818 76.086 C 818 79.355, 816.792 81, 814.393 81 C 812.755 81, 812 81.568, 812 82.800 C 812 85.750, 814.121 87, 819.127 87 C 823.366 87, 824.178 86.612, 826.989 83.250 C 829.684 80.025, 830.040 78.960, 829.533 75.645 C 828.260 67.328, 822.629 61.031, 815.826 60.318 C 812.509 59.969, 810.281 60.481, 806.272 62.510 M 673 88.933 C 668.817 90.207, 657.941 95.870, 653.731 98.966 C 648.919 102.505, 643.083 114.335, 639.858 127.088 C 637.607 135.992, 637.665 143.193, 640.102 157 C 641.192 163.178, 641.605 163.859, 648.447 170.750 L 655.645 178 664.294 178 C 671.250 178, 673.976 177.535, 678.221 175.625 C 686.841 171.746, 691.884 167.446, 694.564 161.690 C 698.310 153.644, 697.932 151.902, 691.515 147.642 C 688.499 145.639, 685.535 144, 684.929 144 C 684.323 144, 680.973 146.740, 677.486 150.089 C 670.826 156.484, 665.450 158.852, 662.621 156.637 C 659.732 154.374, 658.072 140.379, 659.366 129.208 C 660.165 122.317, 660.468 121.658, 664.881 117.208 C 667.449 114.619, 671.787 111.375, 674.520 110 C 677.253 108.625, 680.841 106.602, 682.495 105.503 C 684.148 104.405, 685.697 103.383, 685.938 103.232 C 686.179 103.081, 685.279 99.593, 683.938 95.482 C 681.609 88.340, 681.366 88.010, 678.500 88.089 C 676.850 88.135, 674.375 88.515, 673 88.933 M 814 103.536 C 812.625 104.301, 809.363 105.226, 806.752 105.592 C 798.628 106.730, 797.095 111.623, 795.037 143 C 793.427 167.562, 793.330 178.722, 794.715 180.111 C 795.383 180.781, 798.363 181.531, 801.337 181.778 C 806.460 182.203, 806.963 182.028, 810.937 178.438 C 813.243 176.355, 815.765 173.421, 816.542 171.919 C 818.228 168.659, 821.453 125.894, 820.759 115.998 C 820.507 112.414, 819.450 107.848, 818.401 105.821 C 816.582 102.305, 816.392 102.206, 814 103.536" stroke="none" fill="#453271" fill-rule="evenodd"/><path d="M 764.500 41.868 C 762.183 42.356, 760.964 43.581, 759.145 47.247 C 757.163 51.244, 756.649 54.384, 755.898 67.102 C 754.974 82.727, 753.402 95.043, 752.194 96.117 C 751.812 96.456, 749.252 97.479, 746.504 98.390 C 741.809 99.947, 741.431 99.942, 740.244 98.319 C 737.375 94.396, 737.117 90.193, 739.078 79.320 C 741.210 67.498, 741.602 53.047, 739.883 49.684 C 737.814 45.639, 735.146 44.254, 731.145 45.151 C 729.140 45.600, 726.375 46.198, 725 46.481 C 723.625 46.763, 721.498 47.783, 720.274 48.747 C 717.425 50.991, 716.429 57.726, 714.913 85 C 714.069 100.177, 713.397 105.928, 712.325 107.147 C 711.528 108.053, 708.819 109.312, 706.304 109.945 C 695.425 112.684, 691.371 116.913, 693.166 123.648 C 694.263 127.767, 700.238 133, 703.844 133 C 709.107 133, 710.447 135.008, 710.280 142.644 C 709.773 165.871, 709.801 173.134, 710.401 173.734 C 710.773 174.106, 713.909 174.590, 717.371 174.811 C 722.340 175.127, 724.529 174.771, 727.769 173.118 C 732.301 170.806, 731.757 172.536, 733.956 153.432 C 734.530 148.445, 735 142.505, 735 140.231 C 735 137.958, 735.484 133.842, 736.075 131.084 C 737.206 125.811, 740.179 122.985, 746.168 121.490 C 750.661 120.369, 751.270 123.063, 751.124 143.421 C 751.053 153.364, 751.334 161.995, 751.747 162.600 C 753.325 164.907, 757.100 166, 763.490 166 L 770.112 166 772.306 161.250 C 774.327 156.874, 774.500 154.964, 774.500 137 L 774.500 117.500 777.302 113.837 C 778.844 111.822, 780.725 109.936, 781.482 109.645 C 785.419 108.135, 783.932 92.323, 779.678 90.456 C 777.648 89.565, 777.501 88.819, 777.513 79.500 C 777.520 74, 778.052 65.411, 778.694 60.412 C 779.982 50.400, 779.205 44.354, 776.364 42.277 C 774.549 40.949, 769.663 40.781, 764.500 41.868 M 584.751 48.711 C 581.155 49.606, 581.341 58.527, 585.081 64.614 C 587.159 67.996, 590.905 69, 601.440 69 C 604.278 69, 607.140 69.540, 607.800 70.200 C 609.479 71.879, 609.332 86.074, 607.587 90.730 C 606.810 92.803, 605.187 101.700, 603.982 110.500 C 602.776 119.300, 600.978 130.775, 599.986 136 C 598.971 141.344, 597.874 153.450, 597.479 163.673 L 596.776 181.845 601.109 184.055 C 603.587 185.320, 608.117 186.480, 611.694 186.768 C 617.726 187.252, 617.982 187.177, 618.949 184.635 C 620.169 181.424, 621.448 173.624, 623.560 156.500 C 624.442 149.350, 625.800 139.900, 626.578 135.500 C 628.779 123.040, 633 91.239, 633 87.113 C 633 85.071, 633.374 82.973, 633.831 82.450 C 634.289 81.928, 635.186 79.658, 635.824 77.407 L 636.986 73.315 641.743 74.098 C 644.359 74.528, 651.057 74.908, 656.628 74.940 C 664.694 74.988, 667.022 74.678, 668.068 73.418 C 669.651 71.511, 669.980 57.593, 668.478 56.084 C 667.511 55.111, 657.235 54.024, 615.500 50.480 C 591.944 48.479, 586.857 48.186, 584.751 48.711 M 806.272 62.510 C 799.062 66.160, 794.999 71.518, 794.349 78.233 C 793.899 82.877, 794.201 84.063, 796.902 88.258 C 801.776 95.827, 811.008 98.865, 809.376 92.363 C 809.006 90.888, 807.651 87.841, 806.364 85.591 C 803.075 79.841, 803.308 76.981, 807.283 74.275 C 810.177 72.304, 810.978 72.180, 814.276 73.193 C 816.721 73.943, 818 74.937, 818 76.086 C 818 79.355, 816.792 81, 814.393 81 C 812.755 81, 812 81.568, 812 82.800 C 812 85.750, 814.121 87, 819.127 87 C 823.366 87, 824.178 86.612, 826.989 83.250 C 829.684 80.025, 830.040 78.960, 829.533 75.645 C 828.260 67.328, 822.629 61.031, 815.826 60.318 C 812.509 59.969, 810.281 60.481, 806.272 62.510 M 673 88.933 C 668.817 90.207, 657.941 95.870, 653.731 98.966 C 648.919 102.505, 643.083 114.335, 639.858 127.088 C 637.607 135.992, 637.665 143.193, 640.102 157 C 641.192 163.178, 641.605 163.859, 648.447 170.750 L 655.645 178 664.294 178 C 671.250 178, 673.976 177.535, 678.221 175.625 C 686.841 171.746, 691.884 167.446, 694.564 161.690 C 698.310 153.644, 697.932 151.902, 691.515 147.642 C 688.499 145.639, 685.535 144, 684.929 144 C 684.323 144, 680.973 146.740, 677.486 150.089 C 670.826 156.484, 665.450 158.852, 662.621 156.637 C 659.732 154.374, 658.072 140.379, 659.366 129.208 C 660.165 122.317, 660.468 121.658, 664.881 117.208 C 667.449 114.619, 671.787 111.375, 674.520 110 C 677.253 108.625, 680.841 106.602, 682.495 105.503 C 684.148 104.405, 685.697 103.383, 685.938 103.232 C 686.179 103.081, 685.279 99.593, 683.938 95.482 C 681.609 88.340, 681.366 88.010, 678.500 88.089 C 676.850 88.135, 674.375 88.515, 673 88.933 M 814 103.536 C 812.625 104.301, 809.363 105.226, 806.752 105.592 C 798.628 106.730, 797.095 111.623, 795.037 143 C 793.427 167.562, 793.330 178.722, 794.715 180.111 C 795.383 180.781, 798.363 181.531, 801.337 181.778 C 806.460 182.203, 806.963 182.028, 810.937 178.438 C 813.243 176.355, 815.765 173.421, 816.542 171.919 C 818.228 168.659, 821.453 125.894, 820.759 115.998 C 820.507 112.414, 819.450 107.848, 818.401 105.821 C 816.582 102.305, 816.392 102.206, 814 103.536" stroke="none" fill="#453271" fill-rule="evenodd"/><path d="M 570.593 102.250 C 569.794 103.487, 568.872 107.875, 568.544 112 C 568.215 116.125, 567.417 123.468, 566.769 128.318 C 565.655 136.663, 565.385 137.323, 561.744 140.612 C 557.995 143.999, 557.740 144.072, 551.699 143.460 C 534.899 141.758, 523.069 138.229, 521.635 134.490 C 521.298 133.613, 521.310 127.551, 521.661 121.020 L 522.300 109.146 519.227 106.073 C 515.837 102.683, 512.443 102.188, 505.943 104.135 C 502.723 105.100, 501.844 106.017, 500.088 110.243 C 495.322 121.710, 494.812 140.084, 498.953 151.146 C 505.370 168.291, 516.130 177.263, 534.930 181.146 C 540.568 182.311, 542.201 182.217, 552.110 180.156 C 560.074 178.500, 564.654 176.929, 568.903 174.398 L 574.746 170.918 578.417 173.084 C 583.412 176.031, 590.451 175.339, 593.681 171.584 C 596.967 167.764, 598.635 161.560, 597.135 158.737 C 596.481 157.507, 595.532 154.250, 595.027 151.500 C 593.481 143.088, 592.198 137.633, 591.074 134.685 C 590.483 133.137, 589.962 129.312, 589.916 126.185 C 589.870 123.058, 589.083 116.900, 588.166 112.500 C 586.514 104.568, 586.462 104.481, 582.038 102.250 C 579.584 101.013, 576.332 100, 574.811 100 C 573.041 100, 571.523 100.809, 570.593 102.250 M 518.571 150.571 C 515.539 153.604, 517.734 159, 522 159 C 524.386 159, 527 156.386, 527 154 C 527 151.614, 524.386 149, 522 149 C 520.979 149, 519.436 149.707, 518.571 150.571 M 557.571 155.571 C 554.539 158.604, 556.734 164, 561 164 C 563.386 164, 566 161.386, 566 159 C 566 156.614, 563.386 154, 561 154 C 559.979 154, 558.436 154.707, 557.571 155.571 M 538 157 C 536.900 158.100, 536 159.900, 536 161 C 536 163.576, 539.424 167, 542 167 C 544.576 167, 548 163.576, 548 161 C 548 158.424, 544.576 155, 542 155 C 540.900 155, 539.100 155.900, 538 157" stroke="none" fill="#00b2e4" fill-rule="evenodd"/><path d="M 456.227 63.521 C 437.061 67.684, 419.129 85.947, 414.583 105.935 C 412.631 114.517, 412.584 130.461, 414.488 138.431 C 417.259 150.037, 422.739 158.590, 433.389 167.934 C 435.734 169.990, 437.458 170.435, 444.521 170.806 C 458.816 171.556, 469.407 166.094, 478.861 153.095 C 484.266 145.665, 486.646 139.303, 487.265 130.626 C 487.663 125.060, 487.511 124.578, 484.364 121.431 C 480.110 117.177, 474.230 113.752, 463.816 109.462 C 452.116 104.643, 450.771 104.786, 448.133 111.133 C 446.960 113.957, 446 117.053, 446 118.015 C 446 120.132, 451.046 125.295, 456.500 128.759 C 461.318 131.818, 461.965 132.698, 461.985 136.216 C 462.013 141.292, 459 145.844, 454.572 147.416 C 446.010 150.455, 445.509 150.385, 441.260 145.558 C 436.764 140.450, 434.474 133.683, 433.011 121.174 C 431.857 111.310, 432.373 109.936, 442.072 97.065 L 448.212 88.916 464.576 89.607 C 480.747 90.290, 480.982 90.270, 484.451 87.899 C 488.076 85.422, 490.888 80.186, 493.163 71.679 C 493.842 69.141, 494.103 66.770, 493.744 66.410 C 493.384 66.051, 490.042 64.911, 486.316 63.878 C 478.309 61.658, 465.507 61.506, 456.227 63.521 M 385.819 72.545 C 384.344 73.341, 382.863 74.857, 382.527 75.913 C 382.192 76.970, 381.076 78.905, 380.047 80.213 C 378.255 82.492, 377.893 82.551, 371.326 81.643 C 365.329 80.814, 363.915 80.948, 359.987 82.712 C 357.519 83.820, 353.192 86.624, 350.371 88.942 C 345.420 93.011, 343.798 95.736, 336.945 111.500 C 333.450 119.541, 332.940 144.453, 336.096 153 C 337.213 156.025, 338.374 159.502, 338.675 160.726 C 338.977 161.950, 341.188 164.763, 343.590 166.976 C 347.800 170.857, 348.198 171, 354.796 171 C 363.973 171, 370.608 168.863, 377.748 163.606 L 383.689 159.233 385.414 164.030 C 386.362 166.669, 388.448 170.891, 390.047 173.414 C 392.770 177.707, 393.232 178, 397.282 178 C 403.341 178, 411 173.162, 411 169.336 C 411 166.368, 407.237 152.101, 406.032 150.500 C 405.141 149.317, 401.477 134.062, 400.009 125.431 C 398.760 118.084, 400.023 104.091, 402.972 92.590 C 404.087 88.240, 405 83.205, 405 81.403 C 405 78.368, 404.537 77.904, 398.750 75.134 C 390.395 71.135, 388.962 70.848, 385.819 72.545 M 365.153 102.695 C 363.311 103.602, 361.562 105.054, 361.265 105.922 C 360.967 106.790, 359.489 110.200, 357.980 113.500 C 352.393 125.712, 351.963 132.755, 356.265 141.608 C 358.877 146.985, 360.831 147.209, 367.364 142.882 C 372.859 139.242, 374.510 135.937, 376.542 124.500 C 378.875 111.371, 378.564 107.939, 374.702 104.196 C 370.954 100.564, 369.835 100.388, 365.153 102.695" stroke="none" fill="#b152b1" fill-rule="evenodd"/><path d="" stroke="none" fill="#c44b9c" fill-rule="evenodd"/><path d="M 122.852 28.750 C 117.951 33.922, 116 37.046, 116 39.723 C 116 41.976, 115.861 42, 103 42 C 90.850 42, 90 41.875, 90 40.081 C 90 31.697, 76.753 25.722, 68.410 30.343 C 61.879 33.960, 60 39.064, 60 53.189 C 60 68.615, 59.476 68.217, 79.252 67.802 L 93.694 67.500 94.347 94.412 C 94.706 109.214, 95 132.222, 95 145.540 C 95 175.930, 95.250 176.707, 106.292 180.603 C 109.988 181.907, 110.655 181.857, 114.410 179.988 C 116.659 178.868, 120.282 176.421, 122.460 174.550 L 126.419 171.148 123.686 118.898 C 122.183 90.160, 121.301 66.320, 121.726 65.920 C 122.152 65.520, 127.531 65.030, 133.680 64.833 C 139.829 64.635, 145.154 64.179, 145.513 63.821 C 145.872 63.462, 147.183 59.868, 148.427 55.834 L 150.688 48.500 148.820 40.500 L 146.951 32.500 141.146 28.750 C 136.645 25.843, 134.336 25, 130.873 25 C 127.009 25, 125.926 25.507, 122.852 28.750 M 296.138 46.862 C 290.213 52.787, 284.945 65.792, 280.488 85.500 C 278.052 96.272, 273.525 110.330, 272.370 110.712 C 271.748 110.918, 270.977 109.830, 270.656 108.293 C 270.335 106.757, 269.330 101.900, 268.422 97.500 C 262.731 69.914, 259.161 60.864, 252.246 56.500 C 250.503 55.400, 249.024 53.825, 248.960 53 C 248.895 52.175, 248.397 52.717, 247.853 54.204 C 247.309 55.692, 245.985 57.187, 244.911 57.528 C 241.316 58.669, 237.912 67.792, 233.009 89.430 C 230.382 101.019, 226.865 115.450, 225.191 121.500 C 221.025 136.559, 217 156.908, 217 162.906 C 217 169.790, 218.279 172.553, 222.078 173.877 C 227.353 175.716, 229.314 175.215, 234.308 170.750 L 239.060 166.500 241.592 154 C 242.984 147.125, 244.997 138.066, 246.065 133.869 C 247.132 129.672, 248.292 123.497, 248.642 120.147 C 249.393 112.968, 251 112.935, 251 120.098 C 251 134.737, 254.643 155.475, 258.713 164.003 C 261.011 168.819, 262.026 169.940, 264.500 170.399 C 269.208 171.272, 275.951 170.227, 279.301 168.106 C 282.657 165.981, 283.542 163.554, 286.997 147 C 289.929 132.951, 295.616 110.051, 296.356 109.311 C 297.920 107.747, 299.076 111.996, 300.897 126 C 302.233 136.279, 306.958 165.351, 307.551 166.948 C 307.847 167.744, 308.492 172.654, 308.984 177.860 C 310.096 189.608, 311.528 191.537, 319.054 191.426 C 322.422 191.377, 324.938 190.692, 326.775 189.324 C 331.660 185.688, 331.728 183.734, 327.683 163.251 C 322.543 137.221, 319.265 115.470, 318.528 102.500 C 317.346 81.700, 314.035 56.803, 311.843 52.223 C 309.693 47.732, 304.466 43, 301.656 43 C 300.745 43, 298.262 44.738, 296.138 46.862 M 190.514 82.130 C 189.482 85.633, 188.528 88.654, 188.393 88.843 C 188.259 89.031, 185.752 88.517, 182.824 87.700 C 179.896 86.884, 174.990 85.948, 171.923 85.620 C 164.432 84.818, 158.146 87.951, 150.199 96.447 C 143.360 103.758, 138.403 114.305, 136.819 124.919 C 135.569 133.294, 136.612 151.802, 138.487 154.498 C 141.890 159.394, 147.779 164.776, 150.899 165.840 C 158.544 168.448, 168.607 166.283, 178 160.009 L 182.500 157.003 182.748 160.752 C 182.884 162.813, 183.776 167.062, 184.730 170.194 C 186.621 176.404, 187.449 176.963, 194.789 176.986 C 198.376 176.998, 199.732 176.387, 203.079 173.250 L 207.080 169.500 207.556 155.191 C 208 141.867, 210.881 120.204, 214.492 103.039 C 216.239 94.732, 216.416 87.037, 214.977 81.858 C 213.841 77.769, 213.286 77.567, 199.945 76.413 L 192.389 75.759 190.514 82.130 M 169.369 108.441 C 165.022 110.333, 160.261 120.556, 158.964 130.782 C 158.432 134.979, 158.252 139.220, 158.565 140.205 C 159.898 144.403, 167.527 143.273, 172.244 138.177 C 176.134 133.975, 180.982 122.315, 181.736 115.343 C 182.516 108.140, 177.059 105.094, 169.369 108.441" stroke="none" fill="#d32a87" fill-rule="evenodd"/><path d="" stroke="none" fill="#ec2b8a" fill-rule="evenodd"/><path d="" stroke="none" fill="#ec2b8a" fill-rule="evenodd"/></svg>